<svg xmlns="http://www.w3.org/2000/svg" viewBox="0 0 165.83 152.93"><defs><style>.cls-1,.cls-2,.cls-3{fill:none;stroke:#000;}.cls-1,.cls-2{stroke-linecap:round;}.cls-1{stroke-linejoin:round;}.cls-2,.cls-3{stroke-miterlimit:10;}</style></defs><g id="Layer_2"><g id="Layer_3" ><path class="cls-1" d="M128,64.25l-.53-32.77,8-9.62,29.82.42-26.75,9.83L155.5,84.34l-4,1.16,1.9,3.81L134.77,91l-5,10.15L59.34,152.43,108,89.79l31.88-9.52,13.48,9L140.22,76.46,128.32,72S128.16,64.09,128,64.25Z"/><line class="cls-1" x1="115.95" y1="62.98" x2="128.01" y2="64.25"/><polyline class="cls-1" points="59.34 152.43 71.97 104.64 87.41 90.74 77.1 99.14 0.5 85.82 86.77 88.68 93.75 62.03 98.19 62.03 124.52 0.5 115.95 62.98 98.19 62.03"/><polyline class="cls-1" points="128.32 72.02 93.75 62.03 108.02 89.79 87.41 89.79"/><line class="cls-1" x1="134.77" y1="91" x2="139.9" y2="80.27"/><line class="cls-1" x1="132.45" y1="28.94" x2="165.33" y2="22.28"/><line class="cls-2" x1="138.58" y1="32.11" x2="132.45" y2="28.94"/><line class="cls-3" x1="127.48" y1="31.48" x2="132.45" y2="28.94"/><line class="cls-2" x1="124.52" y1="0.5" x2="131.97" y2="26.19"/></g></g></svg>
